<?xml version="1.0" encoding="UTF-8" standalone="no" ?>
<!DOCTYPE svg PUBLIC "-//W3C//DTD SVG 1.1//EN" "http://www.w3.org/Graphics/SVG/1.1/DTD/svg11.dtd">
<svg xmlns="http://www.w3.org/2000/svg" xmlns:xlink="http://www.w3.org/1999/xlink" version="1.1" width="1080" height="1080" viewBox="0 0 1080 1080" xml:space="preserve">
<desc>Created with Fabric.js 5.2.4</desc>
<defs>
</defs>
<g transform="matrix(1 0 0 1 540 540)" id="1d2e6765-b0e2-4ffb-83d9-045d7a3b30ad"  >
<rect style="stroke: none; stroke-width: 1; stroke-dasharray: none; stroke-linecap: butt; stroke-dashoffset: 0; stroke-linejoin: miter; stroke-miterlimit: 4; fill: rgb(255,255,255); fill-rule: nonzero; opacity: 1; visibility: hidden;" vector-effect="non-scaling-stroke"  x="-540" y="-540" rx="0" ry="0" width="1080" height="1080" />
</g>
<g transform="matrix(1 0 0 1 540 540)" id="45b64ae2-ff01-43df-8b74-32747c6f9063"  >
</g>
<g transform="matrix(1 0 0 1 427.68 165.52)"  >
<path style="stroke: none; stroke-width: 1; stroke-dasharray: none; stroke-linecap: butt; stroke-dashoffset: 0; stroke-linejoin: miter; stroke-miterlimit: 4; fill: rgb(0,0,0); fill-rule: nonzero; opacity: 1;" vector-effect="non-scaling-stroke"  transform=" translate(-518.12, -433.46)" d="M 515.952698 426.605988 C 522.131042 426.902374 527.733948 426.235931 533.294495 425.110168 C 543.969788 422.948853 550.337524 416.033203 554.130676 406.254852 C 554.730835 404.707611 555.361267 403.15274 556.175964 401.713593 C 556.975769 400.300842 558.327576 399.693634 559.995605 399.911041 C 561.946106 400.165283 562.249268 401.605621 562.379822 403.175507 C 562.600464 405.827362 562.997864 408.479492 563.001709 411.131958 C 563.022217 425.296356 562.972839 439.46109 562.87085 453.625153 C 562.854187 455.932343 562.86853 458.623138 559.726685 459.047974 C 557.142151 459.397461 555.738464 457.593506 554.999023 455.410217 C 550.08905 440.912354 538.881958 435.889557 524.777527 435.44928 C 517.285034 435.215454 509.777527 435.499542 502.280579 435.355133 C 498.842865 435.28894 497.334686 436.774902 497.397888 440.079926 C 497.849854 463.718842 496.3862 487.384247 498.336792 511.001129 C 498.841949 517.116821 502.971588 521.975891 510.318024 522.318115 C 525.243713 523.013367 540.355164 524.647095 555.117432 521.215332 C 569.492065 517.873718 577.771118 507.419067 583.391418 494.492737 C 584.785156 491.287018 586.10791 488.043823 587.296082 484.757416 C 588.209229 482.231842 589.273682 479.80365 592.483215 480.706116 C 595.591187 481.580109 595.588684 484.471619 595.161621 486.933472 C 593.827637 494.62381 592.299866 502.282043 590.746521 509.932281 C 589.490723 516.117676 588.597595 522.374817 586.746765 528.445374 C 585.719666 531.814514 583.869385 533.315979 580.273438 533.307922 C 535.941772 533.208008 491.609894 533.200928 447.278076 533.134521 C 444.808502 533.130798 441.897858 533.335205 441.770782 529.674438 C 441.647736 526.128906 444.481201 526.083801 446.951355 525.638611 C 458.969025 523.472778 465.323914 516.679016 465.396576 504.491852 C 465.654907 461.169189 466.166443 417.843048 465.129517 374.522614 C 465.022675 370.057556 465.610687 365.662903 464.967529 361.10376 C 463.74234 352.418243 458.874542 347.355713 451.112366 344.444641 C 448.934662 343.62793 446.695862 342.942139 444.440399 342.373718 C 442.264496 341.825287 440.755798 340.872772 440.887665 338.352814 C 441.020782 335.808685 442.396912 334.335632 444.843872 333.960938 C 446.316437 333.735413 447.831238 333.722015 449.327087 333.721161 C 491.492828 333.697723 533.658691 333.735626 575.824158 333.610138 C 580.585632 333.595947 583.234863 335.304688 583.278198 340.095154 C 583.39563 353.07251 583.369263 366.051147 583.412048 379.029205 C 583.418945 381.117401 583.378601 383.188812 580.671509 383.562225 C 577.785828 383.960236 576.991882 381.820831 576.31897 379.702148 C 574.313599 373.387665 572.791199 367.020752 569.059082 361.234222 C 561.751343 349.90387 550.921875 345.647949 538.350891 344.283508 C 529.893005 343.365479 521.395447 343.305817 512.893677 343.372375 C 501.968536 343.457947 497.72525 346.892334 497.534149 357.788025 C 497.157166 379.28067 497.400482 400.784088 497.357697 422.282959 C 497.35141 425.449615 498.787628 426.764679 501.96524 426.659851 C 506.459869 426.511658 510.962555 426.608673 515.952698 426.605988 M 560.675354 409.695007 C 560.326843 407.389618 561.482788 404.806274 559.434692 402.450531 C 556.738892 404.351105 556.052917 407.25412 555.145264 409.745697 C 551.453674 419.878754 543.816772 425.304352 533.796448 427.286102 C 522.142395 429.590973 510.244629 428.194427 498.455017 428.423096 C 494.762207 428.494751 494.94873 425.394684 494.975067 422.970123 C 495.219208 400.489349 494.110809 377.996002 495.630554 355.526367 C 496.30368 345.573853 500.051392 341.819427 510.026123 341.682373 C 518.355774 341.567841 526.733765 341.107544 535.010437 341.781647 C 554.452087 343.365173 570.184082 349.540131 576.677429 372.43219 C 577.499695 375.331177 577.502441 378.947083 580.348328 381.063049 C 581.503479 380.385803 581.664124 379.531525 581.596375 378.711121 C 580.539062 365.911316 581.054565 353.078308 580.767395 340.262787 C 580.690979 336.851959 578.665222 336.25 575.783813 336.252777 C 533.293701 336.293884 490.803558 336.278381 448.313446 336.31839 C 446.598785 336.320007 444.052338 335.669708 443.697144 338.078796 C 443.243896 341.152985 446.219269 340.490112 447.956665 340.904053 C 461.42923 344.11438 467.340271 351.530945 467.343872 365.459412 C 467.355957 412.115295 467.362061 458.771179 467.337524 505.427063 C 467.331116 517.629333 460.463226 525.590942 448.572327 527.364624 C 446.844818 527.622253 444.864441 527.429565 444.247528 529.693542 C 445.096954 531.065979 446.382599 530.656433 447.473755 530.657166 C 491.296844 530.685364 535.119995 530.656311 578.942932 530.754272 C 582.636475 530.762573 584.379333 529.407776 585.082214 525.830322 C 587.133423 515.390137 589.683044 505.038208 591.402222 494.547607 C 592.004272 490.87381 593.7052 486.938232 591.731079 482.062347 C 588.630005 485.967651 587.764832 490.038177 586.268066 493.720215 C 580.248535 508.528351 570.982422 520.141846 554.654175 523.651855 C 540.055603 526.790039 525.092224 526.154602 510.395966 524.450012 C 499.720642 523.211792 495.675598 518.779785 495.355896 507.836853 C 494.670135 484.363953 495.00058 460.861359 494.91394 437.370941 C 494.904999 434.944702 496.024628 433.636322 498.534088 433.649567 C 509.677704 433.708405 520.876099 433.090881 531.949829 433.998322 C 543.343567 434.931976 551.914062 440.878998 556.155945 452.082275 C 556.687012 453.484924 556.736938 455.470978 559.042419 455.974426 C 559.416077 455.535156 560.153137 455.075989 560.188965 454.567352 C 561.22113 439.936737 560.415344 425.283569 560.675354 409.695007 z" stroke-linecap="round" />
</g>
<g transform="matrix(1 0 0 1 191.86 166.29)"  >
<path style="stroke: none; stroke-width: 1; stroke-dasharray: none; stroke-linecap: butt; stroke-dashoffset: 0; stroke-linejoin: miter; stroke-miterlimit: 4; fill: rgb(0,0,0); fill-rule: nonzero; opacity: 1;" vector-effect="non-scaling-stroke"  transform=" translate(-282.3, -434.23)" d="M 239.096527 487.905945 C 247.143845 503.317291 257.731079 515.944092 274.288116 521.449463 C 307.926178 532.634399 339.828918 523.515015 356.274628 487.194305 C 357.64798 484.161163 359.026886 481.120941 360.185822 478.003174 C 361.134979 475.449677 362.638733 473.00119 365.368652 473.462311 C 368.559662 474.001251 368.903076 477.376709 368.647125 479.945984 C 368.022247 486.218109 366.354706 492.421478 366.119141 498.690582 C 365.452393 516.434387 354.175781 524.809021 339.262543 530.095703 C 306.482117 541.716187 274.009247 540.97876 242.947113 525.066956 C 222.98819 514.842896 210.144485 497.449677 203.16478 476.295837 C 193.875946 448.143677 192.876968 419.457977 203.699631 391.657349 C 216.421005 358.979431 240.73941 339.105988 275.511505 332.651794 C 299.283203 328.239471 322.517029 330.526306 345.25882 338.530731 C 348.821136 339.784546 352.342346 340.331055 355.760254 337.954041 C 358.849426 335.805695 360.772675 337.500916 362.010071 340.266296 C 362.607635 341.601837 362.987366 343.177582 362.951294 344.631775 C 362.608582 358.449677 363.634888 372.283569 362.469543 386.090424 C 362.285889 388.266632 362.344727 390.662354 359.501251 391.151123 C 356.50592 391.665985 355.466034 389.426544 354.547699 387.203003 C 350.9328 378.450378 348.194336 369.246246 341.934326 361.828552 C 327.953278 345.261963 309.726654 339.032715 288.766693 341.849548 C 259.03717 345.844971 241.925507 364.523743 233.962402 392.342194 C 226.287003 419.155609 226.812881 446.186951 233.278107 473.191315 C 234.487686 478.243591 236.719925 482.90863 239.096527 487.905945 M 238.762787 373.369019 C 243.557953 365.707611 249.004593 358.640717 256.127808 352.912201 C 276.812775 336.277222 309.862671 333.631866 332.605957 349.78006 C 343.630768 357.60791 349.871124 368.397583 354.566864 380.543518 C 355.646576 383.336243 355.897675 386.690674 358.616241 388.480255 C 360.197235 388.10199 360.492584 387.155304 360.497101 386.114319 C 360.55365 373.140869 360.602448 360.167328 360.607208 347.193787 C 360.607697 345.876099 360.442047 344.524994 360.120972 343.247864 C 359.550385 340.977936 358.290802 339.596436 355.77652 340.889099 C 352.193756 342.73111 348.714874 342.039764 345.148407 340.789886 C 323.238953 333.111603 300.711243 330.591675 277.834076 334.456055 C 243.838181 340.198517 219.330093 359.040283 206.593307 391.106598 C 194.3871 421.837067 195.783478 453.129272 208.77002 483.395172 C 218.319885 505.651733 234.820801 521.404236 258.075928 529.316895 C 275.034607 535.087097 292.54248 536.133972 310.292114 534.723877 C 326.229889 533.457703 340.825714 528.365662 354.150299 519.605286 C 357.878845 517.153931 360.601257 513.847473 361.527985 509.325714 C 363.495697 499.724884 365.581635 490.143829 366.243439 480.328949 C 366.348358 478.773376 366.479858 477.285156 364.465912 476.77771 C 362.400604 477.509644 362.139343 479.520691 361.522644 481.160614 C 358.455383 489.316925 354.159424 496.719757 349.122559 503.854828 C 329.751129 531.295471 293.087555 533.402588 268.153229 521.403381 C 246.509476 510.987701 235.531097 491.784851 229.747726 469.259674 C 225.380096 452.248627 226.108902 434.833954 226.936462 417.592743 C 227.664017 402.434723 231.073257 387.618958 238.762787 373.369019 z" stroke-linecap="round" />
</g>
<g transform="matrix(1 0 0 1 664.43 165.49)"  >
<path style="stroke: none; stroke-width: 1; stroke-dasharray: none; stroke-linecap: butt; stroke-dashoffset: 0; stroke-linejoin: miter; stroke-miterlimit: 4; fill: rgb(0,0,0); fill-rule: nonzero; opacity: 1;" vector-effect="non-scaling-stroke"  transform=" translate(-754.87, -433.42)" d="M 807.102539 362.022491 C 821.304688 389.541473 810.075867 428.294403 769.28241 440.998291 C 774.380615 446.742126 778.135193 453.087555 781.904236 459.446289 C 792.168274 476.76236 801.496216 494.740967 815.118225 509.811005 C 821.887817 517.30011 829.553284 523.645752 840.218018 524.940491 C 842.753113 525.248169 845.385315 526.308838 845.053162 529.561829 C 844.728149 532.744324 842.179565 533.20105 839.458984 533.195129 C 828.296387 533.170715 817.131409 533.338623 805.971863 533.155212 C 799.744141 533.052917 794.849915 529.676208 791.029358 525.110962 C 782.217102 514.580872 776.162476 502.262238 769.183594 490.542847 C 761.86322 478.249969 755.541321 465.389709 747.345642 453.582062 C 741.575745 445.269226 733.598267 443.284241 724.344299 443.33136 C 720.892944 443.348938 719.408752 444.991699 719.413452 448.159424 C 719.437805 464.650726 719.49469 481.142181 719.61853 497.632965 C 719.642212 500.788452 720.09082 503.938385 720.215759 507.095917 C 720.615662 517.203674 724.894287 522.339783 734.823059 524.431763 C 737.265503 524.946472 739.756653 525.235046 742.1922 525.776611 C 744.233337 526.23053 745.273132 527.616882 745.227112 529.756226 C 745.176086 532.133606 743.61438 532.920471 741.604797 533.006958 C 738.443787 533.142944 735.276367 533.169312 732.111572 533.17218 C 711.785278 533.190491 691.459045 533.194885 671.132751 533.183411 C 669.808594 533.182678 668.407532 533.257568 667.175842 532.871277 C 664.295471 531.967834 663.778503 528.91626 666.223755 527.112061 C 667.238159 526.363525 668.630127 525.98584 669.907349 525.755859 C 683.462952 523.31488 688.642334 517.05426 688.638062 503.203888 C 688.624146 457.885834 688.644958 412.56781 688.652832 367.249756 C 688.655212 353.299866 684.258789 347.326324 670.921326 343.174469 C 669.811218 342.828857 668.687378 342.527893 667.571899 342.199188 C 665.799316 341.676849 664.717712 340.654419 664.700928 338.646545 C 664.683411 336.560638 665.504272 334.962494 667.48114 334.410828 C 669.211243 333.928101 671.075989 333.745758 672.881653 333.743347 C 700.039124 333.707092 727.201782 333.403412 754.352356 333.839844 C 772.028748 334.123932 788.172791 339.132721 800.619568 352.765198 C 803.111938 355.494965 805.415833 358.296295 807.102539 362.022491 M 790.609131 520.876221 C 794.932434 525.834839 799.419678 530.612061 806.672729 530.665955 C 817.168335 530.743896 827.6651 530.705627 838.161011 530.645508 C 839.668335 530.63678 841.635986 531.256714 842.285278 528.642212 C 841.84082 528.292969 841.383545 527.622009 840.870789 527.576477 C 829.621277 526.57666 821.640991 519.841614 814.225952 512.269897 C 803.51416 501.331604 796.564514 487.739319 788.187134 475.136932 C 780.457153 463.508698 776.572571 449.081787 763.863342 440.985962 C 763.71814 440.893463 763.845215 440.373505 763.845215 440.076233 C 764.720337 438.718262 766.182861 438.925079 767.431274 438.608917 C 782.795166 434.717896 795.065247 426.471924 803.346863 412.784729 C 815.704285 392.361145 811.875671 365.451813 795.147705 350.639862 C 784.548889 341.254944 772.057556 336.911926 758.642212 336.577362 C 729.337769 335.846405 700.003052 336.324524 670.680664 336.333313 C 668.853699 336.333862 666.860107 336.316528 666.860291 339.049957 C 668.505127 341.195068 671.107483 340.795776 673.251709 341.449615 C 682.232544 344.188049 688.706665 349.372681 690.157288 359.099609 C 690.890869 364.018524 691.085999 369.054016 691.100098 374.038025 C 691.1828 403.360413 691.250366 432.683716 691.095581 462.005524 C 691.013855 477.486145 691.965027 492.992096 690.423218 508.446075 C 689.334961 519.353943 684.249634 524.944458 673.666321 527.34021 C 671.667358 527.792725 669.37677 527.646912 667.828125 529.642212 C 673.237488 531.570007 739.467957 531.012756 742.220215 529.097412 C 740.150818 527.574585 740.150818 527.574646 737.53894 527.333313 C 725.139648 526.187805 718.157837 518.893738 717.682373 506.554993 C 717.534973 502.729431 717.421814 498.901978 717.343079 495.074371 C 717.000366 478.425598 716.619751 461.776581 717.480652 445.130402 C 717.576721 443.273712 718.108948 441.811371 720.225769 441.636169 C 729.828308 440.841431 739.153442 440.62793 746.450989 448.811157 C 751.619263 454.60672 755.307739 461.268982 759.162537 467.887177 C 769.382507 485.433533 778.550537 503.602509 790.609131 520.876221 z" stroke-linecap="round" />
</g>
<g transform="matrix(1 0 0 1 253.37 366.29)"  >
<path style="stroke: none; stroke-width: 1; stroke-dasharray: none; stroke-linecap: butt; stroke-dashoffset: 0; stroke-linejoin: miter; stroke-miterlimit: 4; fill: rgb(0,0,0); fill-rule: nonzero; opacity: 1;" vector-effect="non-scaling-stroke"  transform=" translate(-343.82, -634.23)" d="M 366.38855 649.511658 C 362.456696 660.942139 355.780396 665.762939 344.8172 665.404236 C 326.179596 664.794373 319.119019 657.404541 318.76532 637.908569 C 318.629517 630.423279 318.860413 622.931763 318.768524 615.445007 C 318.731964 612.466125 318.650787 609.335754 315.088745 607.9552 C 313.895721 607.492859 313.278778 606.525818 313.597961 605.157776 C 313.965759 603.581177 315.137878 602.988586 316.566071 603.035828 C 322.041656 603.216858 327.514832 603.476501 332.987732 603.732056 C 333.818481 603.770813 334.687439 603.910522 335.037445 604.839722 C 335.458588 605.957703 335.010315 606.877625 334.016205 607.328796 C 330.02243 609.141357 330.049896 612.657898 330.083405 616.228027 C 330.172485 625.71167 330.061493 635.20105 330.362274 644.677673 C 330.646912 653.644836 335.617462 658.768372 343.706818 659.039062 C 351.589539 659.302979 356.476532 655.589539 357.528473 647.715271 C 359.028168 636.48938 358.322906 625.149475 358.614349 613.859802 C 358.730621 609.355164 354.162598 608.516602 351.957764 605.874634 C 355.079254 602.956482 369.843536 602.702515 374.115662 605.242432 C 374.09021 605.565063 374.157318 606.118042 374.017761 606.176392 C 367.617737 608.85022 367.987 614.259827 368.036316 619.88501 C 368.121948 629.657532 369.022705 639.508606 366.38855 649.511658 M 361.14502 638.286194 C 360.865417 641.098206 360.576782 643.909424 360.307861 646.722473 C 359.4328 655.875427 354.306122 660.866455 345.223694 661.396851 C 336.39032 661.912781 330.407959 657.251831 328.639099 648.258301 C 326.46405 637.199524 328.077515 626.010193 327.694794 614.887085 C 327.593689 611.948486 327.402954 608.933594 329.743317 606.332214 C 325.581848 604.552612 321.897583 605.884155 317.778137 605.785461 C 320.827301 608.618835 321.310883 611.838867 321.314087 615.221924 C 321.321808 623.381592 321.32486 631.541199 321.33963 639.700867 C 321.366241 654.402222 328.645905 664.092651 344.885254 663.104248 C 356.272125 662.411133 362.608276 657.848389 364.716553 646.748779 C 366.723328 636.183289 365.292877 625.495789 365.614532 614.868774 C 365.725555 611.2005 366.487213 608.078674 369.704468 605.719116 C 365.460205 606.501343 361.289124 605.256409 356.319489 605.798035 C 360.442535 608.55542 361.127563 612.056702 361.128204 615.848083 C 361.129395 623.008545 361.146851 630.168945 361.14502 638.286194 z" stroke-linecap="round" />
</g>
<g transform="matrix(1 0 0 1 178.66 366.31)"  >
<path style="stroke: none; stroke-width: 1; stroke-dasharray: none; stroke-linecap: butt; stroke-dashoffset: 0; stroke-linejoin: miter; stroke-miterlimit: 4; fill: rgb(0,0,0); fill-rule: nonzero; opacity: 1;" vector-effect="non-scaling-stroke"  transform=" translate(-269.11, -634.25)" d="M 281.664795 657.833252 C 285.624634 656.240479 287.695892 653.226562 289.758301 650.166992 C 290.786682 648.641357 292.025665 646.940125 294.180969 647.929199 C 296.096558 648.808289 295.524292 650.780334 295.388367 652.391602 C 294.970551 657.345276 292.240051 660.760132 287.855957 662.757141 C 280.16037 666.262756 272.098785 666.869629 264.019501 664.532166 C 248.147812 659.940308 239.534271 644.512085 243.112488 627.557068 C 246.675125 610.675781 258.071686 601.841125 275.143524 602.612 C 278.961426 602.784424 282.773285 602.588074 286.517792 603.725403 C 295.086395 606.328125 298.359253 614.643921 293.929779 623.270386 C 290.781067 622.170715 289.677124 619.057007 288.358826 616.678711 C 281.433685 604.185425 262.948059 607.073608 257.53067 618.170837 C 252.783539 627.895081 252.5728 638.257629 256.812866 648.153198 C 261.135376 658.241089 270.665894 661.684082 281.664795 657.833252 M 258.893951 612.397705 C 270.797028 601.73761 281.238739 603.686096 293.514557 619.460327 C 292.586456 614.396118 294.196259 608.688843 288.476776 607.064392 C 277.591339 603.972717 266.5289 602.763672 256.485931 609.997681 C 246.761414 617.002197 244.467392 627.04126 245.314667 638.261475 C 246.027359 647.699585 249.914978 655.519165 258.646332 659.60022 C 268.102203 664.020081 278.065033 665.717163 287.783752 659.923401 C 290.801147 658.124634 293.135101 655.611633 292.494537 650.810852 C 290.092377 653.328674 289.384766 656.239929 287.041077 657.92572 C 276.586243 665.446045 262.697174 662.503296 255.813965 651.566772 C 249.905304 642.17865 249.979263 621.295898 258.893951 612.397705 z" stroke-linecap="round" />
</g>
<g transform="matrix(1 0 0 1 676.28 366.12)"  >
<path style="stroke: none; stroke-width: 1; stroke-dasharray: none; stroke-linecap: butt; stroke-dashoffset: 0; stroke-linejoin: miter; stroke-miterlimit: 4; fill: rgb(0,0,0); fill-rule: nonzero; opacity: 1;" vector-effect="non-scaling-stroke"  transform=" translate(-766.72, -634.06)" d="M 777.714844 663.037048 C 768.752686 666.529297 760.193909 666.60675 751.797913 662.524048 C 748.398804 660.871216 746.402893 649.486206 748.966553 646.864929 C 750.530518 645.26593 751.724548 646.268066 752.552185 647.666626 C 753.565369 649.378845 754.294434 651.256409 755.242371 653.01062 C 758.032837 658.174377 764.162415 660.519653 769.679199 658.84729 C 773.277649 657.756531 775.354126 655.450195 776.055054 651.904846 C 776.712341 648.580627 774.483643 646.53833 772.159119 644.940125 C 768.052124 642.116333 763.749756 639.57373 759.499084 636.962463 C 749.616089 630.891174 746.279907 622.143616 750.179016 612.424377 C 753.412781 604.363464 762.671265 600.807373 774.060974 603.251526 C 782.944336 605.157776 785.718567 608.525024 785.216919 616.683105 C 785.098694 618.605713 784.838745 620.652161 782.789978 621.157898 C 780.442871 621.737366 779.855835 619.463623 779.088684 617.879089 C 775.56073 610.592468 772.290588 608.543152 765.71698 609.296997 C 761.870972 609.738037 759.643433 612.003235 758.678162 615.43103 C 757.763 618.680969 758.564636 621.629578 761.292236 623.969666 C 766.018982 628.024719 771.968567 630.05426 776.971863 633.673523 C 784.110352 638.837402 786.889587 645.257751 785.125427 653.599731 C 784.238892 657.791748 781.602295 660.673462 777.714844 663.037048 M 774.236511 662.140991 C 778.266052 660.465393 781.296997 657.833252 782.69696 653.543152 C 784.97821 646.55249 782.628967 640.518494 775.071472 635.284485 C 770.837524 632.352234 766.168823 630.05249 761.891724 627.176758 C 755.556824 622.91748 754.143921 616.757202 757.973633 611.376526 C 762.158508 605.496826 768.734009 604.637024 775.117798 608.685852 C 778.523804 610.846191 779.83374 614.516968 782.467773 618.038147 C 781.863892 607.392395 780.609802 606.004822 771.124817 605.260925 C 768.480286 605.053589 765.77179 604.992371 763.148865 605.317444 C 757.548706 606.011475 753.654114 608.968811 751.93988 614.548218 C 749.39502 622.831299 752.132812 629.450317 760.488281 634.812195 C 764.970398 637.688293 769.592407 640.356018 773.975525 643.373108 C 776.461548 645.084412 778.300354 647.34436 778.369141 650.784912 C 778.548279 659.740906 768.565735 664.856812 759.694885 660.440552 C 755.352661 658.278809 753.288696 654.258301 750.658813 649.928833 C 750.132812 659.902527 751.529785 661.910217 759.531677 662.654297 C 764.163818 663.085083 768.84082 663.430054 774.236511 662.140991 z" stroke-linecap="round" />
</g>
<g transform="matrix(1 0 0 1 448.31 366.61)"  >
<path style="stroke: none; stroke-width: 1; stroke-dasharray: none; stroke-linecap: butt; stroke-dashoffset: 0; stroke-linejoin: miter; stroke-miterlimit: 4; fill: rgb(0,0,0); fill-rule: nonzero; opacity: 1;" vector-effect="non-scaling-stroke"  transform=" translate(-538.75, -634.55)" d="M 545.772705 615.334412 C 551.185181 628.628052 556.606689 641.503052 561.634644 654.529907 C 563.133667 658.413696 566.687683 660.457886 569.210754 664.431396 C 562.580872 665.873962 556.501831 665.467834 550.492615 664.856384 C 548.496338 664.653198 549.033813 662.905334 549.839417 661.339539 C 553.396912 654.424683 548.083374 645.373718 540.560974 645.369568 C 538.230469 645.368286 535.899902 645.371887 533.569397 645.37793 C 526.053345 645.397522 521.440308 650.228149 521.55957 657.984314 C 521.56958 658.633118 521.639343 659.331848 521.889954 659.918213 C 524.139893 665.1828 524.144653 665.191956 518.472778 665.260437 C 517.806946 665.268494 517.134155 665.322815 516.476379 665.249756 C 513.768738 664.948975 510.239594 666.379456 508.668365 663.429199 C 507.01239 660.319824 511.297791 659.824341 512.306458 657.72998 C 513.675842 654.886658 515.274963 652.144958 516.5047 649.244812 C 522.283447 635.616577 527.978821 621.95282 533.679016 608.291321 C 534.584961 606.120117 535.258667 603.881958 538.23407 603.689514 C 541.41864 603.483521 541.976318 605.908875 542.861694 608.023987 C 543.824585 610.323975 544.711243 612.655884 545.772705 615.334412 M 519.043762 660.992126 C 518.48938 655.058899 520.726624 649.680969 523.792542 645.087891 C 526.160828 641.539917 530.942688 644.284058 534.588257 643.651367 C 535.880066 643.427185 537.313599 643.369507 538.565918 643.69043 C 542.153076 644.609863 546.809021 640.714966 549.385864 645.790649 C 551.259521 649.481079 552.952637 653.327087 553.4245 657.521057 C 553.605225 659.127075 553.453979 660.770447 553.453979 662.649597 C 556.670715 662.591736 559.708374 663.219788 562.766724 662.149536 C 553.868896 643.516907 547.230591 624.3797 538.571655 605.765808 C 528.395935 624.146973 522.54718 644.222046 512.369629 662.644897 C 514.831055 662.38678 517.268494 663.792053 519.043762 660.992126 z" stroke-linecap="round" />
</g>
<g transform="matrix(1 0 0 1 524.92 366.16)"  >
<path style="stroke: none; stroke-width: 1; stroke-dasharray: none; stroke-linecap: butt; stroke-dashoffset: 0; stroke-linejoin: miter; stroke-miterlimit: 4; fill: rgb(0,0,0); fill-rule: nonzero; opacity: 1;" vector-effect="non-scaling-stroke"  transform=" translate(-615.36, -634.1)" d="M 593.453125 611.014038 C 592.512573 607.952576 588.216187 608.614319 588.078613 605.251526 C 589.416565 602.99408 591.708435 603.600525 593.534363 603.556885 C 601.321289 603.370605 609.13678 602.176086 616.900879 603.606628 C 634.639038 606.874817 642.758728 616.770264 642.639465 634.78949 C 642.513855 653.767334 631.018555 665.217896 612.012756 665.274902 C 605.681519 665.293884 599.349731 665.307312 593.019165 665.235535 C 591.310364 665.216125 589.231445 665.834229 588.11908 662.872498 C 595.892883 659.607666 593.888794 652.609192 593.89209 646.387695 C 593.898376 634.727905 593.683777 623.068054 593.453125 611.014038 M 636.871765 618.708862 C 633.786499 612.485474 628.556152 608.564819 622.102722 606.981079 C 612.442383 604.610291 602.518005 605.135132 592.236572 605.568176 C 597.135376 610.349548 598.301941 652.466553 594.177429 662.703857 C 601.53302 662.703857 608.849243 662.945374 616.143555 662.648499 C 627.728577 662.177002 637.382568 654.159607 639.311768 642.850952 C 640.6521 634.994263 640.92865 626.935913 636.871765 618.708862 z" stroke-linecap="round" />
</g>
<g transform="matrix(1 0 0 1 376.5 366.15)"  >
<path style="stroke: none; stroke-width: 1; stroke-dasharray: none; stroke-linecap: butt; stroke-dashoffset: 0; stroke-linejoin: miter; stroke-miterlimit: 4; fill: rgb(0,0,0); fill-rule: nonzero; opacity: 1;" vector-effect="non-scaling-stroke"  transform=" translate(-466.95, -634.09)" d="M 441.078339 664.464539 C 439.508026 662.807495 440.125153 661.632996 441.485016 661.007751 C 444.897827 659.438721 444.986969 656.443726 444.997101 653.4021 C 445.038208 641.086548 445.047943 628.770935 445.063477 616.455322 C 445.067993 612.850281 444.633301 609.673279 440.843018 607.617676 C 439.015106 606.626343 438.866516 604.023987 441.739594 603.850281 C 453.789215 603.121399 466.067657 600.82373 477.618286 606.256104 C 490.57309 612.348999 494.79245 623.460388 494.344391 637.025513 C 493.949249 648.990479 487.060791 659.278564 476.042419 663.185791 C 469.398895 665.541687 462.341675 665.654663 455.328247 665.279541 C 450.692566 665.031555 446.016418 665.774597 441.078339 664.464539 M 478.314026 609.098145 C 467.175079 603.309509 455.240326 605.860229 442.382416 605.343628 C 446.902618 608.390625 447.433929 611.957092 447.391632 615.940613 C 447.264252 627.936829 447.312256 639.935425 447.359558 651.9328 C 447.374176 655.643127 447.530945 659.338196 444.641602 662.674683 C 452.275696 662.674683 459.282257 662.962524 466.25415 662.594543 C 473.376923 662.218628 479.734619 659.937439 485.047791 654.585083 C 495.07135 644.487732 495.387756 618.54126 478.314026 609.098145 z" stroke-linecap="round" />
</g>
<g transform="matrix(1 0 0 1 603.16 366.06)"  >
<path style="stroke: none; stroke-width: 1; stroke-dasharray: none; stroke-linecap: butt; stroke-dashoffset: 0; stroke-linejoin: miter; stroke-miterlimit: 4; fill: rgb(0,0,0); fill-rule: nonzero; opacity: 1;" vector-effect="non-scaling-stroke"  transform=" translate(-693.6, -634)" d="M 718.451111 615.758423 C 724.753052 629.409302 725.140259 642.616394 716.420837 654.874573 C 708.907349 665.4375 697.694519 667.236145 683.997375 664.430603 C 673.827698 662.347534 665.744629 650.954651 664.447632 640.243347 C 663.128845 629.351929 665.695557 619.820251 672.505188 611.378296 C 682.986084 598.385071 708.72113 599.15509 718.451111 615.758423 M 678.495667 608.929871 C 669.394165 616.337952 665.497986 626.151978 666.477539 637.569458 C 667.340637 647.630615 671.360901 656.733398 681.245117 660.762268 C 690.949158 664.717712 701.090088 664.910095 710.111633 658.069458 C 716.799011 652.998657 719.696411 645.771667 720.341248 637.750427 C 721.283875 626.024841 718.763611 615.086792 708.055847 608.626465 C 698.844116 603.068726 688.770569 603.324585 678.495667 608.929871 z" stroke-linecap="round" />
</g>
<g transform="matrix(1 0 0 1 313.18 366.44)"  >
<path style="stroke: none; stroke-width: 1; stroke-dasharray: none; stroke-linecap: butt; stroke-dashoffset: 0; stroke-linejoin: miter; stroke-miterlimit: 4; fill: rgb(0,0,0); fill-rule: nonzero; opacity: 1;" vector-effect="non-scaling-stroke"  transform=" translate(-403.62, -634.38)" d="M 401.902252 603.494629 C 406.467316 604.007385 410.829742 602.82251 414.787445 604.544067 C 414.787445 605.429749 414.911346 605.963867 414.769653 606.047485 C 408.662445 609.64801 408.603607 615.233215 408.851532 621.509583 C 409.27005 632.105347 408.984802 642.740784 408.65213 653.348816 C 408.503937 658.075623 411.128815 660.558533 414.928802 662.35498 C 411.861145 665.887146 397.641632 666.452942 392.312592 663.262512 C 400.097748 659.648193 397.67981 652.846924 397.786133 646.861755 C 397.97226 636.390076 397.944763 625.914612 398.034729 615.44104 C 398.059662 612.538452 398.002319 609.749329 394.924225 608.145752 C 393.768799 607.543823 392.408112 606.806274 392.856842 605.144226 C 393.365204 603.261353 394.961609 603.356567 396.512329 603.420471 C 398.168579 603.488586 399.829132 603.453735 401.902252 603.494629 M 406.676453 618.592285 C 406.711853 614.039368 405.834625 609.202148 411.711151 605.754395 C 406.176605 605.754395 401.7883 605.754395 397.826721 605.754395 C 402.825623 614.652893 399.894684 624.393127 400.15155 633.681213 C 400.416443 643.259766 401.532104 652.97876 399.055908 662.591309 C 402.34314 662.591309 405.615875 662.591309 408.058136 662.591309 C 405.259827 648.313049 407.30127 633.871399 406.676453 618.592285 z" stroke-linecap="round" />
</g>
<g transform="matrix(1 0 0 1 99.06 359.56)"  >
<path style="stroke: none; stroke-width: 1; stroke-dasharray: none; stroke-linecap: butt; stroke-dashoffset: 0; stroke-linejoin: miter; stroke-miterlimit: 4; fill: rgb(0,0,0); fill-rule: nonzero; opacity: 1;" vector-effect="non-scaling-stroke"  transform=" translate(-189.51, -627.5)" d="M 179.999939 631.331421 C 172.014832 631.330872 164.52951 631.294067 157.044785 631.346558 C 154.061325 631.367493 151.639969 630.885864 151.791504 627.111816 C 151.941681 623.37146 154.702637 623.670898 157.20163 623.669373 C 178.658875 623.656372 200.116135 623.652832 221.573349 623.677917 C 223.883453 623.680603 226.604721 623.449341 227.124756 626.56842 C 227.79007 630.558655 225.131546 631.319519 221.917465 631.31842 C 208.111618 631.313538 194.305786 631.325256 179.999939 631.331421 M 155.067734 627.569885 C 156.067322 629.636292 157.984253 628.772949 159.473511 628.777893 C 179.90416 628.84552 200.335114 628.835083 220.765945 628.801941 C 222.136322 628.799744 223.813583 629.381287 224.671997 627.542053 C 223.882019 625.250427 221.972168 625.39386 220.144608 625.400513 C 201.584061 625.467529 183.025467 626.073242 164.46109 625.460144 C 161.375412 625.358276 158.173645 625.455933 155.067734 627.569885 z" stroke-linecap="round" />
</g>
<g transform="matrix(1 0 0 1 748.07 359.56)"  >
<path style="stroke: none; stroke-width: 1; stroke-dasharray: none; stroke-linecap: butt; stroke-dashoffset: 0; stroke-linejoin: miter; stroke-miterlimit: 4; fill: rgb(0,0,0); fill-rule: nonzero; opacity: 1;" vector-effect="non-scaling-stroke"  transform=" translate(-838.51, -627.5)" d="M 869.759399 631.306763 C 849.304077 631.319885 829.322693 631.330811 809.34137 631.335632 C 808.01001 631.335938 806.675049 631.343872 805.348083 631.254211 C 802.924866 631.090637 801.818848 629.659729 801.766479 627.315552 C 801.709839 624.781799 803.082458 623.713684 805.489258 623.70929 C 806.821167 623.706848 808.153076 623.672119 809.484985 623.671997 C 828.800293 623.670227 848.115601 623.67157 867.430908 623.672913 C 868.263428 623.672913 869.096008 623.67981 869.928528 623.683044 C 872.547791 623.693176 875.131226 623.801025 875.251221 627.368347 C 875.370605 630.918213 872.965698 631.341248 869.759399 631.306763 M 816.52533 628.891235 C 835.148376 628.891235 853.771362 628.891235 872.717712 628.891235 C 871.841125 624.853577 869.7229 625.38623 868.014221 625.383545 C 848.360779 625.353027 828.707275 625.350952 809.053955 625.40686 C 807.383728 625.411621 805.228394 624.865356 804.597961 627.512634 C 804.9328 627.870483 805.244385 628.506653 805.589539 628.525391 C 808.902893 628.705505 812.221985 628.781311 816.52533 628.891235 z" stroke-linecap="round" />
</g>
<g transform="matrix(1 0 0 1 312.03 250.44)"  >
<path style="stroke: none; stroke-width: 1; stroke-dasharray: none; stroke-linecap: butt; stroke-dashoffset: 0; stroke-linejoin: miter; stroke-miterlimit: 4; fill: rgb(0,0,0); fill-rule: nonzero; opacity: 1;" vector-effect="non-scaling-stroke"  transform=" translate(-402.48, -518.38)" d="M 392.524597 531.630676 C 385.585236 524.853271 384.076599 516.782593 388.177094 509.776764 C 391.763092 503.649963 400.569519 500.253479 407.247559 502.395416 C 414.613525 504.758087 418.431763 510.090302 418.975861 517.50592 C 419.411926 523.44928 417.329041 528.881348 412.037109 532.059631 C 405.777252 535.819275 399.18042 536.313354 392.524597 531.630676 M 389.128174 523.163452 C 392.609589 530.214783 397.37619 533.265198 403.907288 532.621277 C 409.935516 532.026917 414.462555 528.168518 415.946472 522.360535 C 417.565491 516.023499 415.450806 509.999481 410.386261 506.521362 C 405.881897 503.42804 399.429779 503.255554 394.880005 506.369965 C 389.178772 510.272552 387.274597 515.740479 389.128174 523.163452 z" stroke-linecap="round" />
</g>
<g transform="matrix(1 0 0 1 539.59 250.56)"  >
<path style="stroke: none; stroke-width: 1; stroke-dasharray: none; stroke-linecap: butt; stroke-dashoffset: 0; stroke-linejoin: miter; stroke-miterlimit: 4; fill: rgb(0,0,0); fill-rule: nonzero; opacity: 1;" vector-effect="non-scaling-stroke"  transform=" translate(-630.03, -518.5)" d="M 625.118469 502.656799 C 634.155579 500.341522 642.793884 504.741089 645.594604 512.771851 C 648.342834 520.651672 644.415771 530.273926 637.152893 533.456421 C 629.126831 536.973389 619.571472 534.068726 615.834473 526.976135 C 611.372925 518.508362 613.701538 509.281952 621.598816 504.29422 C 622.573364 503.678741 623.680603 503.273499 625.118469 502.656799 M 616.681641 513.590515 C 616.527466 515.571533 616.181641 517.55957 616.254578 519.532166 C 616.481323 525.660522 620.7052 530.975037 626.281189 532.386658 C 632.452332 533.949036 638.856384 531.439209 641.887512 526.270325 C 645.167847 520.676453 644.60376 513.547607 640.528931 509.098846 C 633.234375 501.134949 623.399902 502.725494 616.681641 513.590515 z" stroke-linecap="round" />
</g>
<g transform="matrix(1 0 0 1 13.84 330.66)"  >
<path style="stroke: none; stroke-width: 1; stroke-dasharray: none; stroke-linecap: butt; stroke-dashoffset: 0; stroke-linejoin: miter; stroke-miterlimit: 4; fill: rgb(0,0,0); fill-rule: nonzero; opacity: 1;" vector-effect="non-scaling-stroke"  transform=" translate(-104.28, -598.59)" d="M 99.695808 599.981445 C 98.244682 596.120544 99.834343 593.549194 102.859184 592.408203 C 105.918129 591.254456 107.987915 593.649353 108.92112 596.195129 C 111.023376 601.929871 105.892662 602.842712 102.594002 605.077576 C 101.62574 603.431946 100.713875 601.882202 99.695808 599.981445 M 105.036957 600.30957 C 106.729675 598.971802 107.334007 597.462219 105.441162 595.878296 C 104.572006 595.15094 103.431557 595.42395 102.861893 596.338928 C 101.661865 598.266357 102.118111 599.750183 105.036957 600.30957 z" stroke-linecap="round" />
</g>
<g transform="matrix(1 0 0 1 13.69 298.07)"  >
<path style="stroke: none; stroke-width: 1; stroke-dasharray: none; stroke-linecap: butt; stroke-dashoffset: 0; stroke-linejoin: miter; stroke-miterlimit: 4; fill: rgb(0,0,0); fill-rule: nonzero; opacity: 1;" vector-effect="non-scaling-stroke"  transform=" translate(-104.13, -566.01)" d="M 103.932373 571.56604 C 100.56485 570.369568 98.723938 567.20282 99.155373 563.923645 C 99.405449 562.022949 100.472778 560.896912 102.367836 560.700562 C 104.814819 560.44696 107.455879 559.745972 108.630127 563.035461 C 109.625336 565.823486 109.372475 568.296875 106.854088 570.140991 C 106.069084 570.715881 105.059067 570.983398 103.932373 571.56604 M 106.109512 566.789673 C 107.087593 564.717712 106.593559 563.17688 104.263023 562.792786 C 102.902122 562.568481 102.190376 563.724365 102.174904 564.983887 C 102.145134 567.407104 103.299484 568.28064 106.109512 566.789673 z" stroke-linecap="round" />
</g>
<g transform="matrix(1 0 0 1 14.01 150.57)"  >
<path style="stroke: none; stroke-width: 1; stroke-dasharray: none; stroke-linecap: butt; stroke-dashoffset: 0; stroke-linejoin: miter; stroke-miterlimit: 4; fill: rgb(0,0,0); fill-rule: nonzero; opacity: 1;" vector-effect="non-scaling-stroke"  transform=" translate(-104.45, -418.51)" d="M 103.343834 413.010773 C 107.266785 412.594513 109.105331 414.825562 109.441933 417.762817 C 109.943695 422.141205 105.97187 422.671661 103.155502 424.064423 C 98.151512 418.463684 98.131493 416.065308 103.343834 413.010773 M 102.735931 416.454041 C 101.894821 418.435089 102.101021 420.046753 104.544128 420.39505 C 105.578468 420.542511 106.484215 419.664429 106.443428 418.599701 C 106.368126 416.633728 105.810623 414.940155 102.735931 416.454041 z" stroke-linecap="round" />
</g>
<g transform="matrix(1 0 0 1 13.75 314.23)"  >
<path style="stroke: none; stroke-width: 1; stroke-dasharray: none; stroke-linecap: butt; stroke-dashoffset: 0; stroke-linejoin: miter; stroke-miterlimit: 4; fill: rgb(0,0,0); fill-rule: nonzero; opacity: 1;" vector-effect="non-scaling-stroke"  transform=" translate(-104.19, -582.17)" d="M 103.022018 588.161438 C 101.945801 587.191711 101.047104 586.225098 100.327248 585.139832 C 98.260109 582.023376 98.425339 578.987488 101.667122 576.955444 C 104.350464 575.273438 106.872849 576.448975 108.459061 579.004028 C 110.420692 582.163818 109.176994 584.729553 106.399887 586.682007 C 105.480164 587.328613 104.327431 587.643677 103.022018 588.161438 M 106.59462 582.228333 C 106.466232 579.496216 104.985725 578.715576 102.642166 579.769653 C 101.441528 580.309631 101.171791 581.614502 101.923599 582.727905 C 103.297043 584.762146 104.866814 585.401367 106.59462 582.228333 z" stroke-linecap="round" />
</g>
<g transform="matrix(1 0 0 1 13.98 410.02)"  >
<path style="stroke: none; stroke-width: 1; stroke-dasharray: none; stroke-linecap: butt; stroke-dashoffset: 0; stroke-linejoin: miter; stroke-miterlimit: 4; fill: rgb(0,0,0); fill-rule: nonzero; opacity: 1;" vector-effect="non-scaling-stroke"  transform=" translate(-104.43, -677.96)" d="M 102.572617 672.594604 C 104.479637 672.112915 105.936081 672.505188 107.056839 673.581055 C 109.112274 675.554199 110.366348 677.889771 108.650665 680.667175 C 107.21682 682.988403 105.150246 684.372864 102.362427 682.977356 C 99.297493 681.443176 98.988365 678.689819 99.735298 675.725586 C 100.070786 674.394226 101.125366 673.495361 102.572617 672.594604 M 103.209023 680.383545 C 105.576355 680.924011 106.756706 679.916199 106.516876 677.561584 C 106.360283 676.02417 105.198059 675.10083 103.710564 675.657715 C 101.440956 676.507507 101.43042 678.183167 103.209023 680.383545 z" stroke-linecap="round" />
</g>
<g transform="matrix(1 0 0 1 13.85 426)"  >
<path style="stroke: none; stroke-width: 1; stroke-dasharray: none; stroke-linecap: butt; stroke-dashoffset: 0; stroke-linejoin: miter; stroke-miterlimit: 4; fill: rgb(0,0,0); fill-rule: nonzero; opacity: 1;" vector-effect="non-scaling-stroke"  transform=" translate(-104.3, -693.94)" d="M 105.554596 698.753052 C 103.141701 700.646851 102.013054 699.52063 100.814079 697.588501 C 99.156433 694.917236 98.740028 692.264954 100.689018 689.744995 C 102.258553 687.715637 104.554749 687.76825 106.516731 689.132996 C 108.728088 690.671326 109.715218 692.941833 108.950531 695.680481 C 108.515465 697.238647 107.383522 698.183838 105.554596 698.753052 M 106.31575 692.806885 C 105.031517 690.758545 103.491676 690.560425 102.00666 692.464905 C 100.972931 693.790527 101.695183 695.162964 102.914162 695.81842 C 105.328918 697.116699 106.093414 695.473816 106.31575 692.806885 z" stroke-linecap="round" />
</g>
<g transform="matrix(1 0 0 1 13.91 378.33)"  >
<path style="stroke: none; stroke-width: 1; stroke-dasharray: none; stroke-linecap: butt; stroke-dashoffset: 0; stroke-linejoin: miter; stroke-miterlimit: 4; fill: rgb(0,0,0); fill-rule: nonzero; opacity: 1;" vector-effect="non-scaling-stroke"  transform=" translate(-104.36, -646.27)" d="M 106.068573 641.204834 C 106.66021 641.574036 106.957527 641.72821 107.210701 641.936218 C 109.837921 644.094666 110.045105 646.681885 108.255234 649.381104 C 106.803192 651.570801 104.494232 652.322327 102.184044 651.209961 C 99.660927 649.994995 98.87059 647.321777 99.492249 644.850342 C 100.235359 641.896057 102.23082 639.943359 106.068573 641.204834 M 102.733498 644.42395 C 101.892204 646.397888 102.126694 648.080078 104.461006 648.545166 C 105.754852 648.802856 106.601669 647.679199 106.597397 646.412415 C 106.589912 644.190613 105.653862 642.960144 102.733498 644.42395 z" stroke-linecap="round" />
</g>
<g transform="matrix(1 0 0 1 13.74 281.17)"  >
<path style="stroke: none; stroke-width: 1; stroke-dasharray: none; stroke-linecap: butt; stroke-dashoffset: 0; stroke-linejoin: miter; stroke-miterlimit: 4; fill: rgb(0,0,0); fill-rule: nonzero; opacity: 1;" vector-effect="non-scaling-stroke"  transform=" translate(-104.18, -549.11)" d="M 106.424065 543.972534 C 108.171684 545.1651 109.041725 546.512512 109.18985 548.294495 C 109.444847 551.362183 108.295525 553.711182 105.174416 554.223083 C 102.38237 554.68103 100.343735 553.019226 99.501579 550.396606 C 98.551743 547.43866 99.470306 545.089539 102.660667 544.153442 C 103.742012 543.836182 104.940987 543.919678 106.424065 543.972534 M 106.196014 547.455872 C 104.332573 545.676453 102.803375 546.375366 101.88092 548.341919 C 101.138924 549.923767 102.454247 550.934937 103.746094 551.258301 C 106.532837 551.955933 106.73085 550.11792 106.196014 547.455872 z" stroke-linecap="round" />
</g>
<g transform="matrix(1 0 0 1 13.87 362.16)"  >
<path style="stroke: none; stroke-width: 1; stroke-dasharray: none; stroke-linecap: butt; stroke-dashoffset: 0; stroke-linejoin: miter; stroke-miterlimit: 4; fill: rgb(0,0,0); fill-rule: nonzero; opacity: 1;" vector-effect="non-scaling-stroke"  transform=" translate(-104.32, -630.1)" d="M 109.26915 630.026489 C 108.952087 633.806519 106.946396 635.669678 103.694649 635.377319 C 100.927895 635.12854 99.382851 633.112366 99.3638 630.20752 C 99.347076 627.657166 100.332123 625.143188 102.823524 624.84082 C 105.963356 624.459656 108.607826 626.011047 109.26915 630.026489 M 102.416283 631.42511 C 104.086548 633.190918 105.58654 633.146484 106.465828 630.775757 C 106.973732 629.406311 106.39576 627.949036 104.892685 627.687012 C 102.544937 627.277771 101.603683 628.543396 102.416283 631.42511 z" stroke-linecap="round" />
</g>
<g transform="matrix(1 0 0 1 13.8 248.62)"  >
<path style="stroke: none; stroke-width: 1; stroke-dasharray: none; stroke-linecap: butt; stroke-dashoffset: 0; stroke-linejoin: miter; stroke-miterlimit: 4; fill: rgb(0,0,0); fill-rule: nonzero; opacity: 1;" vector-effect="non-scaling-stroke"  transform=" translate(-104.24, -516.56)" d="M 103.491844 511.634949 C 107.479401 511.256439 109.05246 513.334229 109.276192 516.553955 C 109.459839 519.196777 108.163971 520.891113 105.373123 521.393188 C 102.436768 521.921326 100.547905 520.862427 99.585556 518.087158 C 98.395042 514.653992 99.953346 512.722717 103.491844 511.634949 M 106.661041 516.541382 C 106.142273 514.577332 104.944405 513.64502 103.158241 514.933655 C 101.752571 515.947693 101.83165 517.659912 103.107613 518.706238 C 104.910049 520.184204 105.998131 518.989807 106.661041 516.541382 z" stroke-linecap="round" />
</g>
<g transform="matrix(1 0 0 1 13.78 264.64)"  >
<path style="stroke: none; stroke-width: 1; stroke-dasharray: none; stroke-linecap: butt; stroke-dashoffset: 0; stroke-linejoin: miter; stroke-miterlimit: 4; fill: rgb(0,0,0); fill-rule: nonzero; opacity: 1;" vector-effect="non-scaling-stroke"  transform=" translate(-104.22, -532.58)" d="M 99.08625 531.348999 C 102.277222 526.888855 105.055649 526.121399 107.573036 528.686462 C 109.373985 530.521545 109.822182 532.804565 108.884338 535.07959 C 107.974442 537.286743 105.895111 538.285217 103.603943 537.825928 C 100.434135 537.190308 98.956177 534.952881 99.08625 531.348999 M 106.629333 533.35553 C 106.558174 531.448486 106.318146 529.435547 103.707001 530.183716 C 102.008224 530.67041 101.809952 532.486511 102.508514 533.861694 C 103.587105 535.984924 105.084343 536.191101 106.629333 533.35553 z" stroke-linecap="round" />
</g>
<g transform="matrix(1 0 0 1 13.73 441.6)"  >
<path style="stroke: none; stroke-width: 1; stroke-dasharray: none; stroke-linecap: butt; stroke-dashoffset: 0; stroke-linejoin: miter; stroke-miterlimit: 4; fill: rgb(0,0,0); fill-rule: nonzero; opacity: 1;" vector-effect="non-scaling-stroke"  transform=" translate(-104.17, -709.54)" d="M 108.071182 706.555054 C 109.995682 709.775024 109.286346 712.3349 106.632835 714.105835 C 104.611862 715.454773 102.439369 714.686401 100.789932 713.084839 C 98.904686 711.254333 98.685547 708.870728 100.058434 706.778381 C 102.28965 703.37793 105.067711 703.598389 108.071182 706.555054 M 106.422997 710.205017 C 106.615601 708.01123 105.510696 707.085144 103.453712 707.454346 C 102.146286 707.688965 101.311005 708.849854 101.807877 710.033997 C 102.729706 712.230835 104.359299 712.356995 106.422997 710.205017 z" stroke-linecap="round" />
</g>
<g transform="matrix(1 0 0 1 13.74 394)"  >
<path style="stroke: none; stroke-width: 1; stroke-dasharray: none; stroke-linecap: butt; stroke-dashoffset: 0; stroke-linejoin: miter; stroke-miterlimit: 4; fill: rgb(0,0,0); fill-rule: nonzero; opacity: 1;" vector-effect="non-scaling-stroke"  transform=" translate(-104.18, -661.94)" d="M 100.052597 664.971252 C 98.397293 660.961609 99.134308 657.842896 103.122505 656.804016 C 106.83934 655.835754 108.473473 658.563843 109.054817 661.804504 C 109.400314 663.730347 108.651337 665.449951 106.956825 666.487671 C 104.443787 668.026855 102.234749 667.202454 100.052597 664.971252 M 102.729416 663.905334 C 104.842232 665.069031 106.328049 664.675293 106.531822 662.093018 C 106.648483 660.614624 105.756287 659.273071 104.192108 659.541687 C 102.109566 659.899231 100.933617 661.193481 102.729416 663.905334 z" stroke-linecap="round" />
</g>
<g transform="matrix(1 0 0 1 13.87 346.53)"  >
<path style="stroke: none; stroke-width: 1; stroke-dasharray: none; stroke-linecap: butt; stroke-dashoffset: 0; stroke-linejoin: miter; stroke-miterlimit: 4; fill: rgb(0,0,0); fill-rule: nonzero; opacity: 1;" vector-effect="non-scaling-stroke"  transform=" translate(-104.31, -614.47)" d="M 109.003616 612.446472 C 109.741821 616.852783 108.281525 619.407959 103.98037 619.466675 C 100.118652 619.51947 99.634109 616.617004 99.452538 613.643127 C 99.337456 611.758362 100.182487 610.248413 101.935722 609.800537 C 104.604538 609.118652 107.234657 609.251404 109.003616 612.446472 M 106.290642 613.23291 C 105.401596 611.835388 104.341484 610.973694 102.729065 612.23175 C 101.861969 612.908203 101.634598 613.818481 102.095505 614.8302 C 102.572937 615.878235 103.136024 617.108582 104.434242 617.012085 C 106.291458 616.874084 106.706551 615.468018 106.290642 613.23291 z" stroke-linecap="round" />
</g>
<g transform="matrix(1 0 0 1 13.81 231.66)"  >
<path style="stroke: none; stroke-width: 1; stroke-dasharray: none; stroke-linecap: butt; stroke-dashoffset: 0; stroke-linejoin: miter; stroke-miterlimit: 4; fill: rgb(0,0,0); fill-rule: nonzero; opacity: 1;" vector-effect="non-scaling-stroke"  transform=" translate(-104.26, -499.59)" d="M 100.67337 503.382568 C 98.272713 500.586823 98.759254 498.145874 100.938957 496.066528 C 102.623688 494.459351 104.882828 494.024719 106.933502 495.207611 C 109.191986 496.510406 109.780426 498.846558 109.269493 501.293243 C 108.516029 504.901276 105.846519 505.611969 100.67337 503.382568 M 106.486176 500.989349 C 106.921722 498.844147 106.27063 497.316071 103.877327 497.501556 C 102.247528 497.627838 101.89959 499.150085 102.231621 500.482147 C 102.843178 502.935638 104.296127 503.126038 106.486176 500.989349 z" stroke-linecap="round" />
</g>
<g transform="matrix(1 0 0 1 13.68 22.39)"  >
<path style="stroke: none; stroke-width: 1; stroke-dasharray: none; stroke-linecap: butt; stroke-dashoffset: 0; stroke-linejoin: miter; stroke-miterlimit: 4; fill: rgb(0,0,0); fill-rule: nonzero; opacity: 1;" vector-effect="non-scaling-stroke"  transform=" translate(-104.12, -290.33)" d="M 108.810814 288.592712 C 109.788773 292.924072 107.71154 295.053253 104.141815 295.47229 C 100.780907 295.866882 99.675262 293.176575 99.255257 290.432281 C 98.921997 288.25473 100.057358 286.526184 102.001099 285.634674 C 104.99939 284.259491 106.992271 285.931244 108.810814 288.592712 M 103.343636 287.724854 C 101.637543 289.271271 100.953636 290.986603 103.209267 292.484833 C 104.338882 293.235138 105.959633 293.094635 106.421768 291.51416 C 107.010292 289.501404 106.96788 287.500458 103.343636 287.724854 z" stroke-linecap="round" />
</g>
<g transform="matrix(1 0 0 1 13.91 133.83)"  >
<path style="stroke: none; stroke-width: 1; stroke-dasharray: none; stroke-linecap: butt; stroke-dashoffset: 0; stroke-linejoin: miter; stroke-miterlimit: 4; fill: rgb(0,0,0); fill-rule: nonzero; opacity: 1;" vector-effect="non-scaling-stroke"  transform=" translate(-104.35, -401.77)" d="M 102.554642 406.880219 C 101.616325 405.950562 100.780014 405.296204 100.387863 404.43869 C 99.094292 401.610107 99.085495 398.769379 102.168968 397.213196 C 105.015427 395.776611 107.487778 397.127594 108.610962 399.884766 C 109.811523 402.83194 108.981461 405.430389 105.693542 406.635986 C 104.815056 406.95813 103.808075 406.92984 102.554642 406.880219 M 105.066757 399.585938 C 102.325233 399.339966 101.944046 400.937408 102.557053 403.027191 C 102.848312 404.020142 103.853958 404.797638 104.897209 404.335175 C 107.188507 403.319366 107.006676 401.680603 105.066757 399.585938 z" stroke-linecap="round" />
</g>
<g transform="matrix(1 0 0 1 13.84 182.41)"  >
<path style="stroke: none; stroke-width: 1; stroke-dasharray: none; stroke-linecap: butt; stroke-dashoffset: 0; stroke-linejoin: miter; stroke-miterlimit: 4; fill: rgb(0,0,0); fill-rule: nonzero; opacity: 1;" vector-effect="non-scaling-stroke"  transform=" translate(-104.28, -450.35)" d="M 102.418655 445.348907 C 104.72924 444.659027 106.445602 445.125824 107.633339 446.70871 C 109.55162 449.265106 109.602448 451.903748 107.250526 454.244659 C 105.237656 456.248138 103.092377 456.114471 101.303703 453.951538 C 98.832764 450.963531 98.684105 448.048828 102.418655 445.348907 M 102.432175 449.066101 C 102.106583 450.906311 102.40136 452.529846 104.666237 452.418762 C 106.247437 452.341217 106.867065 451.033386 106.311028 449.559052 C 105.640427 447.781006 104.576286 446.66861 102.432175 449.066101 z" stroke-linecap="round" />
</g>
<g transform="matrix(1 0 0 1 13.87 166.91)"  >
<path style="stroke: none; stroke-width: 1; stroke-dasharray: none; stroke-linecap: butt; stroke-dashoffset: 0; stroke-linejoin: miter; stroke-miterlimit: 4; fill: rgb(0,0,0); fill-rule: nonzero; opacity: 1;" vector-effect="non-scaling-stroke"  transform=" translate(-104.31, -434.85)" d="M 101.091339 429.682312 C 104.612442 427.774902 107.057388 429.137115 108.447792 431.88974 C 110.688072 436.324829 106.69828 438.237183 104.479538 440.900604 C 101.324463 437.684937 97.217361 435.034393 101.091339 429.682312 M 102.204353 432.299591 C 101.490852 434.34314 102.032722 435.982178 104.203987 436.387878 C 105.721718 436.671478 106.709007 435.431061 106.458839 433.940826 C 106.104843 431.832184 104.84446 430.794525 102.204353 432.299591 z" stroke-linecap="round" />
</g>
<g transform="matrix(1 0 0 1 13.65 215.41)"  >
<path style="stroke: none; stroke-width: 1; stroke-dasharray: none; stroke-linecap: butt; stroke-dashoffset: 0; stroke-linejoin: miter; stroke-miterlimit: 4; fill: rgb(0,0,0); fill-rule: nonzero; opacity: 1;" vector-effect="non-scaling-stroke"  transform=" translate(-104.09, -483.35)" d="M 108.684074 481.561005 C 108.941391 485.182739 109.074562 488.558563 104.484932 488.56958 C 101.673927 488.576324 99.844986 486.869965 99.461952 484.075409 C 99.11219 481.52359 100.266991 479.644318 102.715942 478.623047 C 105.580864 477.428314 107.472519 478.376282 108.684074 481.561005 M 105.797241 485.921875 C 107.32621 484.074432 107.325775 482.21167 105.235802 480.976654 C 103.558052 479.98526 102.23996 481.297852 101.98497 482.792236 C 101.600487 485.045563 102.606087 486.574158 105.797241 485.921875 z" stroke-linecap="round" />
</g>
<g transform="matrix(1 0 0 1 14.13 117.76)"  >
<path style="stroke: none; stroke-width: 1; stroke-dasharray: none; stroke-linecap: butt; stroke-dashoffset: 0; stroke-linejoin: miter; stroke-miterlimit: 4; fill: rgb(0,0,0); fill-rule: nonzero; opacity: 1;" vector-effect="non-scaling-stroke"  transform=" translate(-104.58, -385.7)" d="M 105.432693 390.557678 C 101.754395 391.058289 100.058235 389.440643 99.728752 386.272369 C 99.45269 383.617767 100.606827 381.67746 103.184433 380.961304 C 106.128441 380.143372 108.079185 381.843842 109.054222 384.31424 C 110.259705 387.368378 108.716988 389.381042 105.432693 390.557678 M 106.455849 386.94873 C 106.771873 384.881836 106.353729 383.172058 103.820473 383.62207 C 102.33477 383.885956 101.941795 385.415375 102.443085 386.750305 C 103.196121 388.755615 104.531586 389.043549 106.455849 386.94873 z" stroke-linecap="round" />
</g>
<g transform="matrix(1 0 0 1 13.75 457.68)"  >
<path style="stroke: none; stroke-width: 1; stroke-dasharray: none; stroke-linecap: butt; stroke-dashoffset: 0; stroke-linejoin: miter; stroke-miterlimit: 4; fill: rgb(0,0,0); fill-rule: nonzero; opacity: 1;" vector-effect="non-scaling-stroke"  transform=" translate(-104.2, -725.62)" d="M 108.852859 727.474487 C 107.294174 730.811707 104.976067 731.450378 102.203201 730.012878 C 99.660347 728.69458 98.958344 726.3078 99.727432 723.684998 C 100.405746 721.371826 102.13166 720.167908 104.635742 720.592896 C 108.334915 721.220581 109.328384 723.731445 108.852859 727.474487 M 105.679298 723.913635 C 103.701973 723.033386 101.995361 723.073303 101.89418 725.719055 C 101.842178 727.078918 102.968056 728.412964 104.349846 728.309387 C 106.899696 728.118164 106.923599 726.332153 105.679298 723.913635 z" stroke-linecap="round" />
</g>
<g transform="matrix(1 0 0 1 13.8 70.46)"  >
<path style="stroke: none; stroke-width: 1; stroke-dasharray: none; stroke-linecap: butt; stroke-dashoffset: 0; stroke-linejoin: miter; stroke-miterlimit: 4; fill: rgb(0,0,0); fill-rule: nonzero; opacity: 1;" vector-effect="non-scaling-stroke"  transform=" translate(-104.24, -338.4)" d="M 104.131058 333.345703 C 106.148483 333.37616 107.259033 334.372253 108.08313 335.634369 C 109.641991 338.021698 109.546638 340.387665 107.278458 342.252136 C 105.213737 343.949341 102.883423 343.868103 101.088539 341.89859 C 99.143333 339.764191 98.565407 337.189758 100.734138 334.822144 C 101.435478 334.056458 102.740089 333.843414 104.131058 333.345703 M 103.677277 340.616547 C 105.840034 340.776093 106.883492 339.81723 106.298836 337.666351 C 105.992989 336.541168 105.105423 335.246216 103.820549 335.823669 C 101.646645 336.800629 101.832802 338.564026 103.677277 340.616547 z" stroke-linecap="round" />
</g>
<g transform="matrix(1 0 0 1 13.86 199.02)"  >
<path style="stroke: none; stroke-width: 1; stroke-dasharray: none; stroke-linecap: butt; stroke-dashoffset: 0; stroke-linejoin: miter; stroke-miterlimit: 4; fill: rgb(0,0,0); fill-rule: nonzero; opacity: 1;" vector-effect="non-scaling-stroke"  transform=" translate(-104.3, -466.96)" d="M 107.153305 462.657196 C 108.401451 463.924164 109.037979 465.086182 109.090622 466.458466 C 109.197128 469.235138 108.180389 471.462128 105.266037 471.993195 C 102.409241 472.513702 100.373276 471.054993 99.729958 468.260132 C 99.072083 465.402069 99.731873 462.970856 103.028969 462.073944 C 104.347527 461.71524 105.629028 461.595245 107.153305 462.657196 M 105.645065 464.918671 C 103.445793 463.6716 102.076569 464.39032 101.950378 466.815796 C 101.878494 468.197449 102.854805 469.562958 104.36702 469.413879 C 106.991631 469.155121 106.92675 467.368835 105.645065 464.918671 z" stroke-linecap="round" />
</g>
<g transform="matrix(1 0 0 1 13.93 38.54)"  >
<path style="stroke: none; stroke-width: 1; stroke-dasharray: none; stroke-linecap: butt; stroke-dashoffset: 0; stroke-linejoin: miter; stroke-miterlimit: 4; fill: rgb(0,0,0); fill-rule: nonzero; opacity: 1;" vector-effect="non-scaling-stroke"  transform=" translate(-104.38, -306.48)" d="M 99.699203 306.813843 C 99.54863 303.106232 101.336723 301.358521 104.439247 301.371613 C 107.047844 301.382599 108.779709 303.109375 109.026619 305.720917 C 109.285713 308.461212 108.050697 310.803833 105.310829 311.434296 C 102.138588 312.164307 100.472794 310.10907 99.699203 306.813843 M 105.031273 303.87735 C 102.531799 303.381378 101.753029 304.853577 101.998894 306.891602 C 102.182991 308.417603 103.539574 309.135498 104.931953 308.535339 C 107.223709 307.547516 106.923859 305.909058 105.031273 303.87735 z" stroke-linecap="round" />
</g>
<g transform="matrix(1 0 0 1 13.81 86.57)"  >
<path style="stroke: none; stroke-width: 1; stroke-dasharray: none; stroke-linecap: butt; stroke-dashoffset: 0; stroke-linejoin: miter; stroke-miterlimit: 4; fill: rgb(0,0,0); fill-rule: nonzero; opacity: 1;" vector-effect="non-scaling-stroke"  transform=" translate(-104.26, -354.5)" d="M 108.459106 351.903625 C 109.803818 356.159302 108.320396 359.22998 104.453964 359.627167 C 100.835419 359.998962 99.642555 356.834534 99.570076 353.521942 C 99.529427 351.663971 100.283798 350.326355 102.10743 349.717194 C 104.589325 348.888245 106.671768 349.407013 108.459106 351.903625 M 106.415634 353.820557 C 105.53434 352.080597 104.506798 350.444641 102.386063 352.2789 C 101.211029 353.295258 101.352097 354.79953 102.455391 355.756897 C 104.321983 357.376587 105.708092 356.663025 106.415634 353.820557 z" stroke-linecap="round" />
</g>
<g transform="matrix(1 0 0 1 13.69 102.08)"  >
<path style="stroke: none; stroke-width: 1; stroke-dasharray: none; stroke-linecap: butt; stroke-dashoffset: 0; stroke-linejoin: miter; stroke-miterlimit: 4; fill: rgb(0,0,0); fill-rule: nonzero; opacity: 1;" vector-effect="non-scaling-stroke"  transform=" translate(-104.14, -370.02)" d="M 101.875351 374.397156 C 99.225975 371.48877 98.192184 368.64444 101.391144 366.003784 C 103.021927 364.657654 105.137009 364.553711 106.935028 366.019592 C 109.028107 367.725983 109.300507 370.023773 108.346214 372.349823 C 107.180962 375.190033 104.936089 375.72113 101.875351 374.397156 M 102.657547 368.426208 C 101.858315 370.40976 101.918106 372.109039 104.478729 372.451202 C 105.537811 372.592682 106.466202 371.719543 106.43203 370.632874 C 106.368561 368.614288 105.770943 366.922333 102.657547 368.426208 z" stroke-linecap="round" />
</g>
<g transform="matrix(1 0 0 1 13.94 54.45)"  >
<path style="stroke: none; stroke-width: 1; stroke-dasharray: none; stroke-linecap: butt; stroke-dashoffset: 0; stroke-linejoin: miter; stroke-miterlimit: 4; fill: rgb(0,0,0); fill-rule: nonzero; opacity: 1;" vector-effect="non-scaling-stroke"  transform=" translate(-104.38, -322.38)" d="M 100.317947 319.376648 C 103.264862 317.108154 105.964264 316.508362 108.223183 319.662689 C 109.49263 321.435303 109.419014 323.445862 108.141083 325.227783 C 106.858063 327.016846 104.952095 327.714874 102.896721 327.021606 C 100.917328 326.354004 99.516449 324.916718 99.634964 322.589325 C 99.684616 321.614044 99.940483 320.649261 100.317947 319.376648 M 102.406403 321.184326 C 102.066246 322.937347 102.082802 324.683136 104.433929 324.6008 C 106.246796 324.537323 106.909973 323.124847 106.307823 321.457733 C 105.610298 319.526581 104.405289 318.859314 102.406403 321.184326 z" stroke-linecap="round" />
</g>
<g transform="matrix(1 0 0 1 660.75 120.89)"  >
<path style="stroke: none; stroke-width: 1; stroke-dasharray: none; stroke-linecap: butt; stroke-dashoffset: 0; stroke-linejoin: miter; stroke-miterlimit: 4; fill: rgb(0,0,0); fill-rule: nonzero; opacity: 1;" vector-effect="non-scaling-stroke"  transform=" translate(-751.19, -388.83)" d="M 724.969238 342.454102 C 741.283936 340.690582 757.030518 339.707184 770.422546 351.136566 C 777.343689 357.043396 780.867798 364.87439 783.110291 373.324921 C 786.303406 385.357666 785.845947 397.451813 781.92395 409.236328 C 776.412415 425.796448 763.560669 432.959991 747.245972 435.216248 C 739.310608 436.313599 731.306335 436.310944 723.302124 436.271698 C 719.070496 436.250946 717.567261 434.529968 717.518799 430.227966 C 717.230408 404.590912 716.836304 378.957001 717.660767 353.32254 C 717.820862 348.344208 718.87323 343.983215 724.969238 342.454102 M 719.348816 379.5 C 719.36438 395.637817 719.471741 411.776459 719.333557 427.912964 C 719.29718 432.164948 720.688171 433.772583 725.104004 433.783142 C 732.940186 433.801819 740.779907 433.503113 748.499329 432.535095 C 763.704407 430.628387 775.019226 423.106232 779.836304 407.852966 C 783.686096 395.662628 784.034363 383.288361 780.027527 371.085754 C 777.848633 364.450104 774.7948 358.160858 769.326416 353.366302 C 757.037354 342.591614 742.51709 342.254517 727.460388 344.168579 C 722.740356 344.768616 720.699768 347.462677 720.080933 352.089996 C 718.90448 360.887299 719.572266 369.698425 719.348816 379.5 z" stroke-linecap="round" />
</g>
<g transform="matrix(1 0 0 1 446.24 359.59)"  >
<path style="stroke: none; stroke-width: 1; stroke-dasharray: none; stroke-linecap: butt; stroke-dashoffset: 0; stroke-linejoin: miter; stroke-miterlimit: 4; fill: rgb(0,0,0); fill-rule: nonzero; opacity: 1;" vector-effect="non-scaling-stroke"  transform=" translate(-536.69, -627.53)" d="M 526.343872 637.495728 C 529.528259 629.712219 532.640259 622.315857 535.752319 614.919495 C 536.256287 614.904907 536.760254 614.89032 537.264221 614.875732 C 540.757874 622.873901 544.079956 630.940552 547.03064 640.180115 C 540.220886 640.180115 534.307007 640.215027 528.394165 640.153198 C 527.068848 640.139404 526.29895 639.276855 526.343872 637.495728 M 531.658386 638.246826 C 535.404114 638.265259 539.158142 638.357971 543.155518 637.187683 C 541.974976 631.276733 539.662354 626.19342 536.704346 620.826782 C 533.337524 625.380676 532.393372 630.192993 530.443237 634.542908 C 529.941223 635.662598 529.353821 637.120544 531.658386 638.246826 z" stroke-linecap="round" />
</g>
<g transform="matrix(1 0 0 1 527.59 365.95)"  >
<path style="stroke: none; stroke-width: 1; stroke-dasharray: none; stroke-linecap: butt; stroke-dashoffset: 0; stroke-linejoin: miter; stroke-miterlimit: 4; fill: rgb(0,0,0); fill-rule: nonzero; opacity: 1;" vector-effect="non-scaling-stroke"  transform=" translate(-618.04, -633.89)" d="M 602.656982 618.049194 C 602.672058 606.249146 604.093201 605.052551 615.114685 607.65155 C 624.561401 609.879333 630.616394 615.523071 632.489868 625.339478 C 633.985413 633.175537 633.741394 640.834595 631.219116 648.448975 C 627.224304 660.508606 615.196655 662.108459 605.852966 660.94696 C 602.664001 660.550598 602.657776 657.595947 602.659607 655.012085 C 602.66803 642.854797 602.659546 630.697571 602.656982 618.049194 M 604.399109 629.526733 C 604.385437 637.502869 604.382568 645.479126 604.352417 653.4552 C 604.341675 656.289734 604.702881 658.869873 608.119751 659.548279 C 615.781494 661.06958 626.017639 655.454529 628.934082 648.035461 C 632.15686 639.837036 632.176331 631.412354 629.585205 623.146484 C 626.456421 613.16571 618.685791 610.376709 610.605957 609.559875 C 607.055664 609.200928 604.645447 610.781921 604.784424 615.089294 C 604.928711 619.564087 604.551819 624.055603 604.399109 629.526733 z" stroke-linecap="round" />
</g>
<g transform="matrix(1 0 0 1 378.96 366.23)"  >
<path style="stroke: none; stroke-width: 1; stroke-dasharray: none; stroke-linecap: butt; stroke-dashoffset: 0; stroke-linejoin: miter; stroke-miterlimit: 4; fill: rgb(0,0,0); fill-rule: nonzero; opacity: 1;" vector-effect="non-scaling-stroke"  transform=" translate(-469.41, -634.17)" d="M 453.651337 648.946533 C 453.659088 636.660461 453.782715 624.863342 453.615906 613.070435 C 453.552032 608.557129 455.404297 607.203918 459.790588 606.785706 C 471.906891 605.630432 483.56424 616.162231 484.728455 627.06842 C 485.685394 636.032837 485.704407 644.577881 480.581665 652.441345 C 475.760193 659.842346 468.404541 661.704468 460.269775 661.644836 C 455.680145 661.611206 453.163483 659.349548 453.646515 654.418518 C 453.807617 652.773743 453.65863 651.098572 453.651337 648.946533 M 478.262085 651.699768 C 483.44809 645.317993 482.859924 637.731323 482.693268 630.252808 C 482.422974 618.123596 474.045135 610.089722 461.965057 609.94574 C 457.823792 609.896423 455.893402 611.047668 455.994751 615.563477 C 456.200073 624.707581 455.972107 633.861328 455.927795 643.011108 C 455.907715 647.153198 455.040558 651.2724 455.90387 655.445496 C 456.509338 658.372192 457.950867 659.817261 461.027954 659.616821 C 467.52533 659.193787 473.542938 657.750244 478.262085 651.699768 z" stroke-linecap="round" />
</g>
<g transform="matrix(1 0 0 1 603.24 365.85)"  >
<path style="stroke: none; stroke-width: 1; stroke-dasharray: none; stroke-linecap: butt; stroke-dashoffset: 0; stroke-linejoin: miter; stroke-miterlimit: 4; fill: rgb(0,0,0); fill-rule: nonzero; opacity: 1;" vector-effect="non-scaling-stroke"  transform=" translate(-693.68, -633.79)" d="M 704.281372 658.436829 C 692.411926 665.486084 679.016968 660.470703 675.248474 647.658569 C 672.710571 639.03009 672.84436 630.228638 674.990601 621.510437 C 676.511719 615.331421 680.418579 610.927368 685.88916 607.843872 C 692.72876 603.988831 702.229919 606.06427 707.70575 613.246033 C 716.532837 624.823181 716.691895 648.176453 704.281372 658.436829 M 687.069397 610.245911 C 682.986877 611.920471 680.265747 614.984619 678.587952 618.943359 C 674.29248 629.078491 674.285706 639.338867 678.452454 649.464844 C 681.240906 656.241272 686.894653 658.969727 693.972595 659.067322 C 700.704346 659.160217 705.369751 655.783203 708.220947 649.952881 C 713.304443 639.558167 712.912354 628.997131 708.027588 618.719849 C 703.84259 609.914673 697.437988 607.374023 687.069397 610.245911 z" stroke-linecap="round" />
</g>
</svg>